name C:\Users\u0101727\Documents\MyRepositories\upper-imu-dc\Results\main_tracking\Case_44\kinematics.mot
datacolumns 10
datarows 18
range 0.50000000 0.67000000
endheader 
time	clav_prot	clav_elev	scapula_abduction	scapula_elevation	scapula_upward_rot	scapula_winging	plane_elv	shoulder_elv	axial_rot	
          0.50000000	        -23.88597602	         -6.30405757	        -15.17474072	         -4.87019023	         10.26521395	          6.76932586	        -33.53478002	         12.20699922	         49.24245566	
          0.51000000	        -23.63764630	         -6.29909504	        -15.35712843	         -4.92244998	         10.32265517	          6.77299621	        -32.45648643	         12.33390756	         48.35480095	
          0.52000000	        -23.64272339	         -6.34618609	        -15.32335254	         -4.97490248	         10.38036588	          6.77678899	        -31.37806223	         12.46079953	         47.46689360	
          0.53000000	        -23.64860747	         -6.39331491	        -15.29081270	         -5.02748270	         10.43832843	          6.78066411	        -30.29882359	         12.58773256	         46.57840424	
          0.54000000	        -23.65574800	         -6.44037820	        -15.26022233	         -5.08017788	         10.49668944	          6.78455527	        -29.21794214	         12.71493673	         45.68872742	
          0.55000000	        -23.66443120	         -6.48731948	        -15.23196447	         -5.13302004	         10.55566549	          6.78839409	        -28.13451621	         12.84267827	         44.79715708	
          0.56000000	        -23.67477867	         -6.53410272	        -15.20611583	         -5.18605538	         10.61550602	          6.79210930	        -27.04750546	         12.97127865	         43.90285087	
          0.57000000	        -23.68703309	         -6.58067916	        -15.18295229	         -5.23933261	         10.67647977	          6.79562181	        -25.95571740	         13.10112290	         43.00478633	
          0.58000000	        -23.70128463	         -6.62700277	        -15.16246357	         -5.29290367	         10.73889629	          6.79884120	        -24.85792296	         13.23264248	         42.10185509	
          0.59000000	        -23.71744747	         -6.67303931	        -15.14432555	         -5.34682218	         10.80307990	          6.80167519	        -23.75283063	         13.36632925	         41.19280834	
          0.60000000	        -23.73548604	         -6.71875482	        -15.12831512	         -5.40113693	         10.86932614	          6.80403904	        -22.63898203	         13.50276087	         40.27612824	
          0.61000000	        -23.75558626	         -6.76408833	        -15.11459464	         -5.45588892	         10.93792979	          6.80584062	        -21.51487160	         13.64256583	         39.35013084	
          0.62000000	        -23.77765680	         -6.80898545	        -15.10282877	         -5.51111574	         11.00922020	          6.80697775	        -20.37911307	         13.78639298	         38.41313534	
          0.63000000	        -23.80162395	         -6.85338367	        -15.09272266	         -5.56684453	         11.08350924	          6.80734919	        -19.23032334	         13.93493815	         37.46336685	
          0.64000000	        -23.82741000	         -6.89720862	        -15.08397830	         -5.62309127	         11.16110447	          6.80684968	        -18.06721099	         14.08891494	         36.49906570	
          0.65000000	        -23.85476136	         -6.94039102	        -15.07599643	         -5.67986298	         11.24230845	          6.80537471	        -16.88861716	         14.24904687	         35.51855894	
          0.66000000	        -23.88344918	         -6.98285596	        -15.06824126	         -5.73715318	         11.32738608	          6.80282681	        -15.69344335	         14.41608095	         34.52021880	
          0.67000000	        -23.91334228	         -7.02451324	        -15.06036619	         -5.79493983	         11.41656726	          6.79911164	        -14.48068575	         14.59076772	         33.50251975	
